<svg width="106" height="82" viewBox="0 0 106 82" fill="none" xmlns="http://www.w3.org/2000/svg">
<circle cx="33" cy="49" r="32.5" fill="#252525" stroke="white"/>
<path d="M21.8331 48.9999L17.2347 53.5981L12.6364 48.9999L17.2347 44.4016L21.8331 48.9999ZM33 37.8327L40.8829 45.7154L45.481 41.1172L33 28.6362L20.5193 41.1172L25.1174 45.7154L33 37.8327ZM48.7656 44.4016L44.1672 48.9999L48.7656 53.5981L53.3636 48.9999L48.7656 44.4016ZM33 60.167L25.1174 52.2843L20.5193 56.8826L33 69.3635L45.481 56.8826L40.8829 52.2843L33 60.167ZM33 53.5981L37.5984 48.9999L33 44.4016L28.4019 48.9999L33 53.5981Z" fill="#F0B90B"/>
<path d="M53.8182 62.091C53.8182 66.911 49.9108 70.8183 45.0909 70.8183C40.271 70.8183 36.3636 66.911 36.3636 62.091C36.3636 57.2711 40.271 53.3638 45.0909 53.3638C49.9108 53.3638 53.8182 57.2711 53.8182 62.091Z" fill="#252525"/>
<path fill-rule="evenodd" clip-rule="evenodd" d="M45.0909 69.9456C49.4289 69.9456 52.9454 66.429 52.9454 62.091C52.9454 57.7531 49.4289 54.2365 45.0909 54.2365C40.753 54.2365 37.2364 57.7531 37.2364 62.091C37.2364 66.429 40.753 69.9456 45.0909 69.9456ZM45.0909 70.8183C49.9108 70.8183 53.8182 66.911 53.8182 62.091C53.8182 57.2711 49.9108 53.3638 45.0909 53.3638C40.271 53.3638 36.3636 57.2711 36.3636 62.091C36.3636 66.911 40.271 70.8183 45.0909 70.8183Z" fill="#B2F355"/>
<path fill-rule="evenodd" clip-rule="evenodd" d="M45.2331 57.7273C44.9117 57.7273 44.6512 57.9878 44.6512 58.3091V61.6981H41.3087C40.9874 61.6981 40.7269 61.9586 40.7269 62.2799C40.7269 62.6012 40.9874 62.8617 41.3087 62.8617H44.6512V65.8727C44.6512 66.1941 44.9117 66.4546 45.2331 66.4546C45.5544 66.4546 45.8149 66.1941 45.8149 65.8727V62.8617H48.8724C49.1937 62.8617 49.4542 62.6012 49.4542 62.2799C49.4542 61.9586 49.1937 61.6981 48.8724 61.6981H45.8149V58.3091C45.8149 57.9878 45.5544 57.7273 45.2331 57.7273Z" fill="#B2F355"/>
<circle cx="73" cy="33" r="32.5" fill="#252525" stroke="white"/>
<path d="M61.8331 33.0001L57.2347 37.5984L52.6364 33.0001L57.2347 28.4019L61.8331 33.0001ZM73 21.8329L80.8829 29.7156L85.481 25.1174L73 12.6365L60.5193 25.1174L65.1174 29.7156L73 21.8329ZM88.7656 28.4019L84.1672 33.0001L88.7656 37.5983L93.3636 33.0001L88.7656 28.4019ZM73 44.1673L65.1174 36.2846L60.5193 40.8828L73 53.3637L85.481 40.8828L80.8829 36.2846L73 44.1673ZM73 37.5984L77.5984 33.0001L73 28.4019L68.4019 33.0001L73 37.5984Z" fill="#F0B90B"/>
<path d="M93.8182 46.0908C93.8182 50.9107 89.9109 54.8181 85.0909 54.8181C80.271 54.8181 76.3636 50.9107 76.3636 46.0908C76.3636 41.2709 80.271 37.3635 85.0909 37.3635C89.9109 37.3635 93.8182 41.2709 93.8182 46.0908Z" fill="#252525"/>
<path fill-rule="evenodd" clip-rule="evenodd" d="M85.0909 53.9453C89.4289 53.9453 92.9455 50.4287 92.9455 46.0908C92.9455 41.7529 89.4289 38.2363 85.0909 38.2363C80.753 38.2363 77.2364 41.7529 77.2364 46.0908C77.2364 50.4287 80.753 53.9453 85.0909 53.9453ZM85.0909 54.8181C89.9109 54.8181 93.8182 50.9107 93.8182 46.0908C93.8182 41.2709 89.9109 37.3635 85.0909 37.3635C80.271 37.3635 76.3636 41.2709 76.3636 46.0908C76.3636 50.9107 80.271 54.8181 85.0909 54.8181Z" fill="#EC2F2F"/>
<path d="M88.8726 45.6982C89.194 45.6982 89.4544 45.9587 89.4544 46.2801C89.4544 46.6014 89.194 46.8619 88.8726 46.8619L81.309 46.8619C80.9877 46.8619 80.7272 46.6014 80.7272 46.2801C80.7272 45.9587 80.9877 45.6982 81.309 45.6982L88.8726 45.6982Z" fill="#EC2F2F"/>
</svg>
