<svg width="28" height="28" viewBox="0 0 28 28" fill="currentColor" xmlns="http://www.w3.org/2000/svg">
<path d="M22.9167 11.6667C22.9167 11.2525 22.5809 10.9167 22.1667 10.9167C21.7525 10.9167 21.4167 11.2525 21.4167 11.6667H22.9167ZM6.58333 11.6667C6.58333 11.2525 6.24755 10.9167 5.83333 10.9167C5.41912 10.9167 5.08333 11.2525 5.08333 11.6667H6.58333ZM23.9697 14.5303C24.2626 14.8232 24.7374 14.8232 25.0303 14.5303C25.3232 14.2374 25.3232 13.7626 25.0303 13.4697L23.9697 14.5303ZM14 3.5L14.5303 2.96967C14.2374 2.67678 13.7626 2.67678 13.4697 2.96967L14 3.5ZM2.96967 13.4697C2.67678 13.7626 2.67678 14.2374 2.96967 14.5303C3.26256 14.8232 3.73744 14.8232 4.03033 14.5303L2.96967 13.4697ZM7.83333 25.25H20.1667V23.75H7.83333V25.25ZM22.9167 22.5V11.6667H21.4167V22.5H22.9167ZM6.58333 22.5V11.6667H5.08333V22.5H6.58333ZM25.0303 13.4697L14.5303 2.96967L13.4697 4.03033L23.9697 14.5303L25.0303 13.4697ZM13.4697 2.96967L2.96967 13.4697L4.03033 14.5303L14.5303 4.03033L13.4697 2.96967ZM20.1667 25.25C21.6855 25.25 22.9167 24.0188 22.9167 22.5H21.4167C21.4167 23.1904 20.857 23.75 20.1667 23.75V25.25ZM7.83333 23.75C7.14298 23.75 6.58333 23.1904 6.58333 22.5H5.08333C5.08333 24.0188 6.31455 25.25 7.83333 25.25V23.75Z" />
</svg>
