<svg width="50" height="18" viewBox="0 0 50 18" fill="none" xmlns="http://www.w3.org/2000/svg">
<circle cx="9" cy="9" r="9" fill="white"/>
<circle cx="9" cy="9" r="8.6" stroke="#252525" stroke-opacity="0.7" stroke-width="0.8"/>
<circle cx="41" cy="9" r="9" fill="#F0B90B"/>
<path d="M37.7098 9L36.3549 10.3548L35 9L36.3549 7.64516L37.7098 9ZM41 5.70968L43.3227 8.03226L44.6774 6.67742L41 3L37.3227 6.67742L38.6774 8.03226L41 5.70968ZM45.6452 7.64516L44.2903 9L45.6452 10.3548L47 9L45.6452 7.64516ZM41 12.2903L38.6774 9.96774L37.3227 11.3226L41 15L44.6774 11.3226L43.3227 9.96774L41 12.2903ZM41 10.3548L42.3549 9L41 7.64516L39.6452 9L41 10.3548Z" fill="white"/>
<path d="M25.7019 5.50018C25.6237 5.49791 25.5468 5.51752 25.4818 5.55624C25.4168 5.59497 25.367 5.65086 25.3395 5.71607C25.312 5.78128 25.3082 5.85252 25.3285 5.91978C25.3488 5.98704 25.3923 6.04694 25.4528 6.09106L27.3033 7.50252H21.5816C21.5317 7.50154 21.4822 7.50942 21.4359 7.52573C21.3895 7.54203 21.3473 7.56644 21.3117 7.59747C21.2761 7.62851 21.2478 7.66555 21.2285 7.70646C21.2092 7.74736 21.1992 7.79128 21.1992 7.83566C21.1992 7.88003 21.2092 7.92399 21.2285 7.96489C21.2478 8.0058 21.2761 8.04284 21.3117 8.07388C21.3473 8.10491 21.3895 8.12932 21.4359 8.14562C21.4822 8.16193 21.5317 8.16981 21.5816 8.16883H28.3166C28.3926 8.16839 28.4667 8.14733 28.529 8.10842C28.5912 8.06952 28.6387 8.01464 28.665 7.9511C28.6914 7.88755 28.6954 7.81834 28.6764 7.75273C28.6575 7.68711 28.6166 7.6282 28.5591 7.58383L25.9415 5.58414C25.8753 5.53177 25.7904 5.50203 25.7019 5.50018ZM21.5816 9.83554C21.5055 9.83598 21.4314 9.85704 21.3692 9.89595C21.3069 9.93485 21.2594 9.98977 21.2331 10.0533C21.2067 10.1169 21.2028 10.186 21.2217 10.2516C21.2406 10.3173 21.2815 10.3762 21.339 10.4205L23.9595 12.4202C23.9969 12.4486 24.0402 12.4702 24.0869 12.4837C24.1336 12.4972 24.1829 12.5024 24.2319 12.499C24.2809 12.4955 24.3286 12.4835 24.3724 12.4637C24.4161 12.4438 24.4551 12.4164 24.487 12.3831C24.5189 12.3499 24.5431 12.3113 24.5583 12.2697C24.5735 12.228 24.5793 12.1842 24.5754 12.1405C24.5715 12.0969 24.5581 12.0544 24.5357 12.0154C24.5134 11.9764 24.4827 11.9417 24.4453 11.9133L22.5956 10.5019H28.3166C28.3664 10.5029 28.416 10.495 28.4623 10.4787C28.5087 10.4624 28.551 10.438 28.5866 10.407C28.6223 10.376 28.6506 10.3389 28.6699 10.298C28.6893 10.2571 28.6992 10.2131 28.6992 10.1687C28.6992 10.1243 28.6893 10.0803 28.6699 10.0394C28.6506 9.99848 28.6223 9.96142 28.5866 9.93038C28.551 9.89934 28.5087 9.87496 28.4623 9.85867C28.416 9.84238 28.3664 9.83453 28.3166 9.83554H21.5816Z" fill="black"/>
<path d="M8.98377 3L8.90332 3.27344V11.2081L8.98377 11.2884L12.6669 9.11127L8.98377 3Z" fill="#343434"/>
<path d="M8.98395 3L5.30078 9.11127L8.98395 11.2884V7.43717V3Z" fill="#8C8C8C"/>
<path d="M8.98381 11.9858L8.93848 12.0411V14.8676L8.98381 15L12.6692 9.80981L8.98381 11.9858Z" fill="#3C3C3B"/>
<path d="M8.98395 15V11.9858L5.30078 9.80981L8.98395 15Z" fill="#8C8C8C"/>
<path d="M8.98438 11.2884L12.6675 9.11135L8.98438 7.43726V11.2884Z" fill="#141414"/>
<path d="M5.30078 9.11135L8.98389 11.2884V7.43726L5.30078 9.11135Z" fill="#393939"/>
</svg>
