<svg width="28" height="28" viewBox="0 0 28 28" fill="currentColor" xmlns="http://www.w3.org/2000/svg">
<g>
<path d="M17.5001 11.6667L16.7603 11.5434C16.724 11.7609 16.7853 11.9832 16.9278 12.1515C17.0703 12.3197 17.2796 12.4167 17.5001 12.4167V11.6667ZM4.66675 11.6667V10.9167C4.25253 10.9167 3.91675 11.2525 3.91675 11.6667H4.66675ZM11.0938 10.7761L10.4698 10.3601L11.0938 10.7761ZM24.0216 14.0589L23.2862 13.9118L24.0216 14.0589ZM14.2761 6.00259L14.9002 6.41861L14.2761 6.00259ZM6.66675 24.0834H20.5271V22.5834H6.66675V24.0834ZM22.0605 10.9167H17.5001V12.4167H22.0605V10.9167ZM18.2399 11.79L19.2125 5.95438L17.7329 5.70779L16.7603 11.5434L18.2399 11.79ZM17.4863 3.91669H16.7723V5.41669H17.4863V3.91669ZM13.6521 5.58656L10.4698 10.3601L11.7179 11.1921L14.9002 6.41861L13.6521 5.58656ZM9.42971 10.9167H4.66675V12.4167H9.42971V10.9167ZM3.91675 11.6667V21.3333H5.41675V11.6667H3.91675ZM23.2237 21.8727L24.7571 14.206L23.2862 13.9118L21.7529 21.5785L23.2237 21.8727ZM10.4698 10.3601C10.2379 10.7078 9.84765 10.9167 9.42971 10.9167V12.4167C10.3492 12.4167 11.2078 11.9572 11.7179 11.1921L10.4698 10.3601ZM19.2125 5.95438C19.3903 4.8877 18.5677 3.91669 17.4863 3.91669V5.41669C17.6408 5.41669 17.7583 5.5554 17.7329 5.70779L19.2125 5.95438ZM22.0605 12.4167C22.8493 12.4167 23.4409 13.1383 23.2862 13.9118L24.7571 14.206C25.0974 12.5043 23.7958 10.9167 22.0605 10.9167V12.4167ZM20.5271 24.0834C21.838 24.0834 22.9667 23.1581 23.2237 21.8727L21.7529 21.5785C21.636 22.1628 21.123 22.5834 20.5271 22.5834V24.0834ZM16.7723 3.91669C15.5185 3.91669 14.3476 4.54332 13.6521 5.58656L14.9002 6.41861C15.3175 5.79266 16.02 5.41669 16.7723 5.41669V3.91669ZM6.66675 22.5834C5.97639 22.5834 5.41675 22.0237 5.41675 21.3333H3.91675C3.91675 22.8521 5.14796 24.0834 6.66675 24.0834V22.5834Z" />
<path fill-rule="evenodd" clip-rule="evenodd" d="M8.58325 23.3334V11.6667H10.0833V23.3334H8.58325Z" />
</g>
</svg>
