<svg width="34" height="20" viewBox="0 0 34 20" fill="none" xmlns="http://www.w3.org/2000/svg">
<path d="M24 19.4C29.1916 19.4 33.4 15.1916 33.4 10C33.4 4.80848 29.1916 0.6 24 0.6C18.8086 0.6 14.6 4.80847 14.6 10C14.6 15.1916 18.8086 19.4 24 19.4Z" fill="#1BA27A" stroke="white" stroke-width="0.8"/>
<path d="M28.2208 5.53833H19.6987V7.59573H22.9311V10.6197H24.9885V7.59573H28.2208V5.53833Z" fill="white"/>
<path d="M23.981 10.9419C21.3071 10.9419 19.1392 10.5187 19.1392 9.99658C19.1392 9.47458 21.307 9.05131 23.981 9.05131C26.6549 9.05131 28.8226 9.47458 28.8226 9.99658C28.8226 10.5187 26.6549 10.9419 23.981 10.9419ZM29.4174 10.1542C29.4174 9.48097 26.9835 8.9353 23.981 8.9353C20.9786 8.9353 18.5444 9.48097 18.5444 10.1542C18.5444 10.747 20.4318 11.2409 22.9328 11.3504V15.6914H24.9901V11.3521C27.5103 11.2461 29.4174 10.7501 29.4174 10.1542Z" fill="white"/>
<circle cx="10" cy="10" r="9.4" fill="#252525" stroke="white" stroke-width="0.8"/>
<path fill-rule="evenodd" clip-rule="evenodd" d="M12.4337 13.2499C13.2711 13.2499 13.9499 12.5711 13.9499 11.7338C13.9499 10.8964 13.2711 10.2176 12.4337 10.2176C11.5964 10.2176 10.9176 10.8964 10.9176 11.7338C10.9176 12.5711 11.5964 13.2499 12.4337 13.2499ZM14.4534 11.7338C14.4534 12.8492 13.5492 13.7534 12.4337 13.7534C11.3183 13.7534 10.4141 12.8492 10.4141 11.7338C10.4141 10.6183 11.3183 9.71411 12.4337 9.71411C13.5492 9.71411 14.4534 10.6183 14.4534 11.7338Z" fill="white"/>
<path fill-rule="evenodd" clip-rule="evenodd" d="M11.1893 12.7782C11.29 12.9017 11.2714 13.0834 11.1478 13.1841C10.0991 14.0384 9.0069 14.6345 8.04134 14.8949C7.08946 15.1517 6.18037 15.0994 5.60507 14.5241C4.96637 13.8854 4.97037 12.8375 5.33407 11.7594C5.38501 11.6084 5.5487 11.5273 5.69968 11.5782C5.85067 11.6291 5.93178 11.7928 5.88084 11.9438C5.53564 12.9671 5.61771 13.7207 6.0131 14.116C6.36819 14.4711 7.01066 14.5753 7.89107 14.3378C8.75784 14.104 9.77871 13.5551 10.7834 12.7367C10.907 12.636 11.0887 12.6546 11.1893 12.7782Z" fill="white"/>
<path fill-rule="evenodd" clip-rule="evenodd" d="M9.17461 7.12903C9.07779 7.00245 9.10191 6.82136 9.22846 6.72454C10.2347 5.95479 11.2685 5.42484 12.1809 5.20483C13.0824 4.98746 13.9375 5.0593 14.4871 5.60893C15.1258 6.24763 15.1218 7.29553 14.7581 8.37365C14.7072 8.52464 14.5434 8.60576 14.3925 8.5548C14.2415 8.50388 14.1604 8.34019 14.2113 8.18922C14.5565 7.16591 14.4744 6.41235 14.079 6.01697C13.7401 5.67798 13.1399 5.56717 12.3161 5.7658C11.5033 5.96181 10.5417 6.44654 9.57907 7.18288C9.45252 7.2797 9.27144 7.25558 9.17461 7.12903Z" fill="white"/>
<path fill-rule="evenodd" clip-rule="evenodd" d="M10.1272 8.2716C10.1272 9.38702 9.22297 10.2913 8.10755 10.2913C6.99213 10.2913 6.08789 9.38702 6.08789 8.2716C6.08789 7.15618 6.99213 6.25195 8.10755 6.25195C9.22297 6.25195 10.1272 7.15618 10.1272 8.2716ZM7.90552 7.26164H8.30945V8.06942H9.11701V8.47335H8.30945V9.28129H7.90552V8.47335H7.09734V8.06942H7.90552V7.26164Z" fill="white"/>
<path d="M13.1562 11.9071V11.5032H11.7136V11.9071H13.1562Z" fill="white"/>
</svg>
