<svg width="107" height="82" viewBox="0 0 107 82" fill="none" xmlns="http://www.w3.org/2000/svg">
<circle cx="33" cy="49" r="32.5" fill="#252525" stroke="white"/>
<path fill-rule="evenodd" clip-rule="evenodd" d="M41.6537 60.5559C44.6309 60.5559 47.0445 58.1424 47.0445 55.1651C47.0445 52.1879 44.6309 49.7743 41.6537 49.7743C38.6764 49.7743 36.2629 52.1879 36.2629 55.1651C36.2629 58.1424 38.6764 60.5559 41.6537 60.5559ZM48.8347 55.1651C48.8347 59.1311 45.6197 62.3461 41.6537 62.3461C37.6877 62.3461 34.4727 59.1311 34.4727 55.1651C34.4727 51.1992 37.6877 47.9841 41.6537 47.9841C45.6197 47.9841 48.8347 51.1992 48.8347 55.1651Z" fill="white"/>
<path fill-rule="evenodd" clip-rule="evenodd" d="M37.2258 58.879C37.5836 59.3183 37.5176 59.9644 37.0783 60.3222C33.3494 63.3597 29.466 65.4793 26.033 66.4053C22.6485 67.3183 19.4162 67.1322 17.3706 65.0867C15.0997 62.8157 15.1139 59.0899 16.4071 55.2566C16.5882 54.7198 17.1702 54.4314 17.707 54.6124C18.2439 54.7935 18.5323 55.3756 18.3512 55.9124C17.1238 59.5507 17.4156 62.23 18.8214 63.6359C20.084 64.8984 22.3683 65.2688 25.4987 64.4244C28.5805 63.593 32.2102 61.6413 35.7825 58.7314C36.2218 58.3737 36.868 58.4396 37.2258 58.879Z" fill="white"/>
<path fill-rule="evenodd" clip-rule="evenodd" d="M30.0656 38.7926C29.7214 38.3426 29.8071 37.6987 30.2571 37.3544C33.8349 34.6176 37.5105 32.7333 40.7545 31.951C43.9599 31.1781 47.0002 31.4336 48.9544 33.3878C51.2254 35.6588 51.2111 39.3846 49.918 43.2179C49.7369 43.7548 49.1548 44.0432 48.618 43.862C48.0811 43.681 47.7928 43.099 47.9739 42.5622C49.2013 38.9237 48.9095 36.2444 47.5036 34.8386C46.2983 33.6333 44.1645 33.2393 41.2355 33.9456C38.3453 34.6425 34.9262 36.366 31.5037 38.9841C31.0537 39.3283 30.4099 39.2426 30.0656 38.7926Z" fill="white"/>
<path fill-rule="evenodd" clip-rule="evenodd" d="M33.446 42.8546C33.446 46.8205 30.2309 50.0355 26.265 50.0355C22.2991 50.0355 19.084 46.8205 19.084 42.8546C19.084 38.8886 22.2991 35.6736 26.265 35.6736C30.2309 35.6736 33.446 38.8886 33.446 42.8546ZM25.5467 39.2636H26.9829V42.1357H29.8542V43.5719H26.9829V46.4446H25.5467V43.5719H22.6731V42.1357H25.5467V39.2636Z" fill="white"/>
<path d="M44.2227 55.7809V54.3447H39.0934V55.7809H44.2227Z" fill="white"/>
<path d="M74 65.5C91.9497 65.5 106.5 50.9497 106.5 33C106.5 15.0506 91.9498 0.5 74 0.5C56.0509 0.5 41.5 15.0506 41.5 33C41.5 50.9497 56.0509 65.5 74 65.5Z" fill="#1BA27A" stroke="white"/>
<path d="M89.0103 17.1362H58.7095V24.4514H70.2023V35.2034H77.5175V24.4514H89.0103V17.1362Z" fill="white"/>
<path d="M73.93 36.3488C64.4228 36.3488 56.715 34.8441 56.715 32.9878C56.715 31.1318 64.4225 29.6268 73.93 29.6268C83.4372 29.6268 91.1447 31.1318 91.1447 32.9878C91.1447 34.8441 83.4372 36.3488 73.93 36.3488ZM93.2596 33.5481C93.2596 31.1545 84.6055 29.2144 73.93 29.2144C63.2548 29.2144 54.6001 31.1545 54.6001 33.5481C54.6001 35.656 61.3108 37.4121 70.2033 37.8012V53.2361H77.5179V37.8073C86.4788 37.4304 93.2596 35.6668 93.2596 33.5481Z" fill="white"/>
</svg>
