<svg width="66" height="66" viewBox="0 0 66 66" fill="none" xmlns="http://www.w3.org/2000/svg">
<circle cx="33" cy="33" r="32.5" fill="#252525" stroke="white"/>
<path fill-rule="evenodd" clip-rule="evenodd" d="M41.6559 44.5555C44.6331 44.5555 47.0467 42.1419 47.0467 39.1646C47.0467 36.1874 44.6331 33.7739 41.6559 33.7739C38.6786 33.7739 36.2651 36.1874 36.2651 39.1646C36.2651 42.1419 38.6786 44.5555 41.6559 44.5555ZM48.8369 39.1646C48.8369 43.1307 45.6219 46.3457 41.6559 46.3457C37.6899 46.3457 34.4749 43.1307 34.4749 39.1646C34.4749 35.1987 37.6899 31.9836 41.6559 31.9836C45.6219 31.9836 48.8369 35.1987 48.8369 39.1646Z" fill="white"/>
<path fill-rule="evenodd" clip-rule="evenodd" d="M37.2348 42.8785C37.5927 43.3178 37.5266 43.9639 37.0873 44.3217C33.3584 47.3592 29.4751 49.4788 26.042 50.4047C22.6575 51.3177 19.4252 51.1316 17.3797 49.0862C15.1087 46.8152 15.123 43.0894 16.4161 39.2561C16.5972 38.7193 17.1792 38.4309 17.7161 38.6119C18.2529 38.793 18.5413 39.3751 18.3602 39.9119C17.1328 43.5502 17.4246 46.2295 18.8305 47.6354C20.093 48.8979 22.3773 49.2683 25.5077 48.4239C28.5895 47.5925 32.2193 45.6408 35.7915 42.7309C36.2309 42.3732 36.877 42.4391 37.2348 42.8785Z" fill="white"/>
<path fill-rule="evenodd" clip-rule="evenodd" d="M30.0739 22.7924C29.7297 22.3423 29.8154 21.6985 30.2654 21.3542C33.8432 18.6173 37.5188 16.733 40.7628 15.9508C43.9682 15.1779 47.0085 15.4334 48.9627 17.3876C51.2337 19.6585 51.2195 23.3844 49.9263 27.2177C49.7452 27.7546 49.1631 28.043 48.6263 27.8618C48.0895 27.6807 47.8011 27.0987 47.9822 26.5619C49.2096 22.9235 48.9178 20.2442 47.5119 18.8384C46.3067 17.6331 44.1728 17.2391 41.2438 17.9453C38.3536 18.6423 34.9345 20.3657 31.512 22.9838C31.062 23.3281 30.4182 23.2423 30.0739 22.7924Z" fill="white"/>
<path fill-rule="evenodd" clip-rule="evenodd" d="M33.452 26.8548C33.452 30.8207 30.237 34.0358 26.271 34.0358C22.3051 34.0358 19.09 30.8207 19.09 26.8548C19.09 22.8889 22.3051 19.6738 26.271 19.6738C30.237 19.6738 33.452 22.8889 33.452 26.8548ZM25.5527 23.2638H26.9889V26.1359H29.8602V27.5721H26.9889V30.4448H25.5527V27.5721H22.6791V26.1359H25.5527V23.2638Z" fill="white"/>
<path d="M44.2229 39.7809V38.3447H39.0935V39.7809H44.2229Z" fill="white"/>
</svg>
