<svg width="28" height="28" viewBox="0 0 28 28" fill="none" stroke="currentColor" xmlns="http://www.w3.org/2000/svg">
<path d="M12.5098 3.9979C13.3048 3.10989 14.6951 3.10989 15.49 3.9979L16.6628 5.30788C17.0679 5.76045 17.6568 6.00436 18.2633 5.97083L20.0188 5.87378C21.2089 5.80799 22.192 6.79109 22.1262 7.98113L22.0291 9.73667C21.9956 10.3432 22.2395 10.932 22.6921 11.3372L24.0021 12.5099C24.8901 13.3049 24.8901 14.6952 24.0021 15.4902L22.6921 16.6629C22.2395 17.068 21.9956 17.6569 22.0291 18.2634L22.1262 20.019C22.192 21.209 21.2089 22.1921 20.0188 22.1263L18.2633 22.0292C17.6568 21.9957 17.0679 22.2396 16.6628 22.6922L15.49 24.0022C14.6951 24.8902 13.3048 24.8902 12.5098 24.0022L11.3371 22.6922C10.9319 22.2396 10.343 21.9957 9.73655 22.0292L7.98101 22.1263C6.79097 22.1921 5.80787 21.209 5.87366 20.019L5.97071 18.2634C6.00424 17.6569 5.76032 17.068 5.30776 16.6629L3.99777 15.4902C3.10977 14.6952 3.10976 13.3049 3.99777 12.5099L5.30775 11.3372C5.76032 10.932 6.00424 10.3432 5.97071 9.73667L5.87366 7.98113C5.80787 6.79109 6.79097 5.80799 7.98101 5.87378L9.73655 5.97083C10.343 6.00436 10.9319 5.76045 11.3371 5.30788L12.5098 3.9979Z"  stroke-width="1.5"/>
<rect x="11.0833" y="11.0834" width="0.01" height="0.01"  stroke-width="2.25" stroke-linejoin="round"/>
<rect x="16.9167" y="16.9166" width="0.01" height="0.01"  stroke-width="2.25" stroke-linejoin="round"/>
<path d="M17.5 10.5L10.5 17.5"  stroke-width="1.5" stroke-linecap="round" stroke-linejoin="round"/>
</svg>
